<svg width="93" height="93" viewBox="0 0 93 93" fill="none" xmlns="http://www.w3.org/2000/svg">
<path fill-rule="evenodd" clip-rule="evenodd" d="M84.3815 46.0264C84.3815 67.2094 67.2093 84.3816 46.0263 84.3816C24.8432 84.3816 7.67102 67.2094 7.67102 46.0264C7.67102 24.8434 24.8432 7.67114 46.0263 7.67114C67.2093 7.67114 84.3815 24.8434 84.3815 46.0264ZM47.4007 35.9867C43.6701 37.5384 36.2141 40.75 25.0327 45.6215C23.2171 46.3436 22.2659 47.0499 22.1794 47.7406C22.033 48.9079 23.4948 49.3675 25.4853 49.9934C25.756 50.0785 26.0366 50.1668 26.3242 50.2603C28.2825 50.8968 30.9169 51.6416 32.2863 51.6712C33.5286 51.698 34.9151 51.1859 36.4458 50.1347C46.8929 43.0827 52.2857 39.5182 52.6243 39.4414C52.8631 39.3872 53.1941 39.319 53.4184 39.5183C53.6427 39.7177 53.6206 40.0952 53.5969 40.1964C53.4521 40.8138 47.7142 46.1482 44.7449 48.9088C43.8192 49.7694 43.1626 50.3798 43.0283 50.5192C42.7276 50.8316 42.4212 51.127 42.1267 51.4109C40.3073 53.1648 38.943 54.48 42.2022 56.6278C43.7684 57.6599 45.0217 58.5134 46.2721 59.3649C47.6376 60.2948 48.9996 61.2224 50.7618 62.3775C51.2108 62.6718 51.6396 62.9775 52.0572 63.2752C53.6463 64.4081 55.074 65.426 56.8378 65.2636C57.8628 65.1693 58.9214 64.2056 59.4591 61.3313C60.7297 54.5386 63.2273 39.8207 63.8045 33.7559C63.8551 33.2245 63.7915 32.5445 63.7404 32.2459C63.6893 31.9474 63.5826 31.5221 63.1945 31.2072C62.735 30.8343 62.0255 30.7557 61.7083 30.7613C60.2656 30.7867 58.0523 31.5563 47.4007 35.9867Z" fill="#D9D9D9"/>
<path fill-rule="evenodd" clip-rule="evenodd" d="M84.3815 46.0264C84.3815 67.2094 67.2093 84.3816 46.0263 84.3816C24.8432 84.3816 7.67102 67.2094 7.67102 46.0264C7.67102 24.8434 24.8432 7.67114 46.0263 7.67114C67.2093 7.67114 84.3815 24.8434 84.3815 46.0264ZM47.4007 35.9867C43.6701 37.5384 36.2141 40.75 25.0327 45.6215C23.2171 46.3436 22.2659 47.0499 22.1794 47.7406C22.033 48.9079 23.4948 49.3675 25.4853 49.9934C25.756 50.0785 26.0366 50.1668 26.3242 50.2603C28.2825 50.8968 30.9169 51.6416 32.2863 51.6712C33.5286 51.698 34.9151 51.1859 36.4458 50.1347C46.8929 43.0827 52.2857 39.5182 52.6243 39.4414C52.8631 39.3872 53.1941 39.319 53.4184 39.5183C53.6427 39.7177 53.6206 40.0952 53.5969 40.1964C53.4521 40.8138 47.7142 46.1482 44.7449 48.9088C43.8192 49.7694 43.1626 50.3798 43.0283 50.5192C42.7276 50.8316 42.4212 51.127 42.1267 51.4109C40.3073 53.1648 38.943 54.48 42.2022 56.6278C43.7684 57.6599 45.0217 58.5134 46.2721 59.3649C47.6376 60.2948 48.9996 61.2224 50.7618 62.3775C51.2108 62.6718 51.6396 62.9775 52.0572 63.2752C53.6463 64.4081 55.074 65.426 56.8378 65.2636C57.8628 65.1693 58.9214 64.2056 59.4591 61.3313C60.7297 54.5386 63.2273 39.8207 63.8045 33.7559C63.8551 33.2245 63.7915 32.5445 63.7404 32.2459C63.6893 31.9474 63.5826 31.5221 63.1945 31.2072C62.735 30.8343 62.0255 30.7557 61.7083 30.7613C60.2656 30.7867 58.0523 31.5563 47.4007 35.9867Z" fill="url(#paint0_linear_21_531)"/>
<defs>
<linearGradient id="paint0_linear_21_531" x1="7.09855" y1="48.8675" x2="84.3841" y2="48.7937" gradientUnits="userSpaceOnUse">
<stop stop-color="#04FFA4"/>
<stop offset="1" stop-color="#2A9B7F"/>
</linearGradient>
</defs>
</svg>
