<svg width="89" height="68" viewBox="0 0 89 68" fill="none" xmlns="http://www.w3.org/2000/svg">
<path d="M79.3872 16.8018C79.4411 17.534 79.4411 18.2663 79.4411 19.0052C79.4411 41.5223 61.1887 67.4913 27.8134 67.4913V67.4778C17.9542 67.4913 8.29982 64.8391 0 59.8383C1.4336 60.0003 2.87439 60.0812 4.31878 60.0846C12.4892 60.0914 20.4262 57.5167 26.854 52.7758C19.0896 52.6374 12.2809 47.883 9.90229 40.9419C12.6222 41.4346 15.4247 41.3333 18.0943 40.6483C9.62922 39.0421 3.5391 32.0572 3.5391 23.9453C3.5391 23.8711 3.5391 23.8002 3.5391 23.7293C6.06138 25.0487 8.88547 25.7809 11.7742 25.8619C3.80139 20.8578 1.34378 10.8967 6.15839 3.10867C15.3708 13.7547 28.9631 20.2268 43.5543 20.9118C42.0919 14.9931 44.0896 8.79108 48.8036 4.6305C56.1118 -1.82126 67.6058 -1.49058 74.4756 5.36948C78.5392 4.617 82.4341 3.21664 85.9983 1.23252C84.6437 5.17714 81.8089 8.52788 78.0219 10.6571C81.6184 10.2589 85.1324 9.35459 88.4415 7.97448C86.0055 11.4028 82.9371 14.3891 79.3872 16.8018Z" fill="#D9D9D9"/>
<path d="M79.3872 16.8018C79.4411 17.534 79.4411 18.2663 79.4411 19.0052C79.4411 41.5223 61.1887 67.4913 27.8134 67.4913V67.4778C17.9542 67.4913 8.29982 64.8391 0 59.8383C1.4336 60.0003 2.87439 60.0812 4.31878 60.0846C12.4892 60.0914 20.4262 57.5167 26.854 52.7758C19.0896 52.6374 12.2809 47.883 9.90229 40.9419C12.6222 41.4346 15.4247 41.3333 18.0943 40.6483C9.62922 39.0421 3.5391 32.0572 3.5391 23.9453C3.5391 23.8711 3.5391 23.8002 3.5391 23.7293C6.06138 25.0487 8.88547 25.7809 11.7742 25.8619C3.80139 20.8578 1.34378 10.8967 6.15839 3.10867C15.3708 13.7547 28.9631 20.2268 43.5543 20.9118C42.0919 14.9931 44.0896 8.79108 48.8036 4.6305C56.1118 -1.82126 67.6058 -1.49058 74.4756 5.36948C78.5392 4.617 82.4341 3.21664 85.9983 1.23252C84.6437 5.17714 81.8089 8.52788 78.0219 10.6571C81.6184 10.2589 85.1324 9.35459 88.4415 7.97448C86.0055 11.4028 82.9371 14.3891 79.3872 16.8018Z" fill="url(#paint0_linear_21_530)"/>
<defs>
<linearGradient id="paint0_linear_21_530" x1="-0.660011" y1="36.2453" x2="88.4445" y2="36.1338" gradientUnits="userSpaceOnUse">
<stop stop-color="#04FFA4"/>
<stop offset="1" stop-color="#2A9B7F"/>
</linearGradient>
</defs>
</svg>
